<svg id="Grupo_2" data-name="Grupo 2" xmlns="http://www.w3.org/2000/svg" xmlns:xlink="http://www.w3.org/1999/xlink" width="414" height="113.161" viewBox="0 0 414 113.161">
  <defs>
    <clipPath id="clip-path">
      <rect id="Rectángulo_3" data-name="Rectángulo 3" width="414" height="113.161" fill="#fff"/>
    </clipPath>
  </defs>
  <g id="Grupo_1" data-name="Grupo 1" clip-path="url(#clip-path)">
    <path id="Trazado_1" data-name="Trazado 1" d="M39.034,0c-.316.207-.5.326-.5.326C-.7,21.3-4.045,50.538,38.141,44.209c28.832-4.321,50.794,6.133,55.3,25.577A56.559,56.559,0,0,0,39.034,0" transform="translate(18.159)" fill="#fff"/>
    <path id="Trazado_2" data-name="Trazado 2" d="M43.486,67.978c-55.8,2.309-29.991-49.405,5.99-67.844A56.581,56.581,0,1,0,85.249,105.047C97.668,80.3,81.725,66.4,43.486,67.978" transform="translate(0 0.312)" fill="#fff"/>
    <path id="Trazado_3" data-name="Trazado 3" d="M44.864,24.115c-1.806,0-3.281.919-3.281,2.5,0,1.686,1.732,2.205,3.771,2.812,2.205.653,5.157,1.552,5.157,4.884,0,2.812-2.179,4.77-5.6,4.77a7.155,7.155,0,0,1-5.766-2.542l1.126-1.689a5.236,5.236,0,0,0,4.544,2.342c2.252,0,3.494-1.263,3.494-2.768,0-1.552-1.243-2.322-3.538-2.971-2.109-.586-5.32-1.509-5.32-4.68,0-2.5,2.035-4.66,5.39-4.66a5.739,5.739,0,0,1,4.71,2.229L48.1,25.824a3.792,3.792,0,0,0-3.235-1.709" transform="translate(91.253 51.543)" fill="#fff"/>
    <path id="Trazado_4" data-name="Trazado 4" d="M43.516,30.611c0-4.657,2.482-8.508,7.359-8.508,4.85,0,7.332,3.851,7.332,8.508,0,4.7-2.482,8.5-7.332,8.5-4.877,0-7.359-3.8-7.359-8.5m12.442.023c0-3.514-1.336-6.592-5.083-6.592s-5.087,3.078-5.087,6.592c0,3.534,1.336,6.549,5.087,6.549s5.083-3.015,5.083-6.549" transform="translate(101.445 51.527)" fill="#fff"/>
    <path id="Trazado_5" data-name="Trazado 5" d="M51.262,36.659h6.3v1.869H49.057V22.212h2.205Z" transform="translate(114.363 51.781)" fill="#fff"/>
    <path id="Trazado_6" data-name="Trazado 6" d="M64.325,22.212v9.631c0,4.747-1.736,7.019-5.836,7.019s-5.926-2.249-5.926-7.132V22.212h2.2v9.517c0,2.838.446,5.2,3.724,5.2s3.658-2.388,3.658-5.087V22.212Z" transform="translate(122.533 51.781)" fill="#fff"/>
    <path id="Trazado_7" data-name="Trazado 7" d="M64.631,39.117c-4.874,0-7.452-3.8-7.452-8.485S59.757,22.1,64.631,22.1A6.679,6.679,0,0,1,70.8,25.568l-1.786,1.126a4.541,4.541,0,0,0-4.4-2.655c-3.7,0-5.157,3.081-5.157,6.592,0,3.534,1.432,6.546,5.157,6.546a4.644,4.644,0,0,0,4.431-2.5l1.759,1.1a6.816,6.816,0,0,1-6.166,3.331" transform="translate(133.297 51.529)" fill="#fff"/>
    <rect id="Rectángulo_1" data-name="Rectángulo 1" width="2.202" height="16.313" transform="translate(208.248 73.993)" fill="#fff"/>
    <path id="Trazado_8" data-name="Trazado 8" d="M64.486,30.611c0-4.657,2.482-8.508,7.359-8.508,4.85,0,7.335,3.851,7.335,8.508,0,4.7-2.485,8.5-7.335,8.5-4.877,0-7.359-3.8-7.359-8.5m12.442.023c0-3.514-1.336-6.592-5.083-6.592s-5.09,3.078-5.09,6.592c0,3.534,1.339,6.549,5.09,6.549s5.083-3.015,5.083-6.549" transform="translate(150.331 51.527)" fill="#fff"/>
    <path id="Trazado_9" data-name="Trazado 9" d="M81.807,22.212V38.525H78.739l-6.4-14.491V38.525h-2.2V22.212h3.631l5.836,13.5v-13.5Z" transform="translate(163.506 51.781)" fill="#fff"/>
    <path id="Trazado_10" data-name="Trazado 10" d="M77.26,24.1v4.884h5.483v1.889H77.26v5.763h6.749v1.889H75.058V22.212h8.951V24.1Z" transform="translate(174.977 51.782)" fill="#fff"/>
    <path id="Trazado_11" data-name="Trazado 11" d="M84.32,24.115c-1.805,0-3.281.919-3.281,2.5,0,1.686,1.732,2.205,3.771,2.812,2.205.653,5.157,1.552,5.157,4.884,0,2.812-2.179,4.77-5.6,4.77A7.144,7.144,0,0,1,78.6,36.537l1.123-1.689A5.247,5.247,0,0,0,84.27,37.19c2.252,0,3.494-1.263,3.494-2.768,0-1.552-1.243-2.322-3.538-2.971-2.112-.586-5.32-1.509-5.32-4.68,0-2.5,2.035-4.66,5.39-4.66A5.732,5.732,0,0,1,89,24.339l-1.449,1.486a3.792,3.792,0,0,0-3.235-1.709" transform="translate(183.233 51.543)" fill="#fff"/>
    <path id="Trazado_12" data-name="Trazado 12" d="M87.539,36.659h6.3v1.869H85.333V22.212h2.205Z" transform="translate(198.93 51.781)" fill="#fff"/>
    <path id="Trazado_13" data-name="Trazado 13" d="M88.592,30.611c0-4.657,2.482-8.508,7.359-8.508,4.85,0,7.332,3.851,7.332,8.508,0,4.7-2.482,8.5-7.332,8.5-4.877,0-7.359-3.8-7.359-8.5m12.442.023c0-3.514-1.336-6.592-5.083-6.592s-5.087,3.078-5.087,6.592c0,3.534,1.336,6.549,5.087,6.549s5.083-3.015,5.083-6.549" transform="translate(206.527 51.527)" fill="#fff"/>
    <path id="Trazado_14" data-name="Trazado 14" d="M107.8,31.037v7.742h-1.612l-.24-1.506a5.876,5.876,0,0,1-4.61,1.842c-4.877,0-7.385-3.758-7.385-8.458,0-4.66,2.508-8.555,7.385-8.555a6.741,6.741,0,0,1,6.113,3.444l-1.759,1.169a4.617,4.617,0,0,0-4.381-2.678c-3.7,0-5.157,3.131-5.157,6.642,0,3.531,1.432,6.5,5.157,6.5,2.792,0,4.357-1.666,4.477-4.054v-.2h-4.151V31.037Z" transform="translate(219.02 51.527)" fill="#fff"/>
    <path id="Trazado_15" data-name="Trazado 15" d="M101.665,41.664h-2.2V25.351h2.2Zm-.47-17.556H99.483l1.736-3.241H103.4Z" transform="translate(231.87 48.645)" fill="#fff"/>
    <path id="Trazado_16" data-name="Trazado 16" d="M106.953,24.115c-1.8,0-3.278.919-3.278,2.5,0,1.686,1.732,2.205,3.771,2.812,2.205.653,5.157,1.552,5.157,4.884,0,2.812-2.179,4.77-5.6,4.77a7.144,7.144,0,0,1-5.766-2.542l1.123-1.689a5.247,5.247,0,0,0,4.547,2.342c2.252,0,3.494-1.263,3.494-2.768,0-1.552-1.243-2.322-3.538-2.971-2.112-.586-5.323-1.509-5.323-4.68,0-2.5,2.039-4.66,5.393-4.66a5.732,5.732,0,0,1,4.707,2.229l-1.449,1.486a3.794,3.794,0,0,0-3.238-1.709" transform="translate(236.005 51.543)" fill="#fff"/>
    <path id="Trazado_17" data-name="Trazado 17" d="M116.807,24.194h-4.734V38.528h-2.2V24.194h-4.734V22.212h11.669Z" transform="translate(245.099 51.78)" fill="#fff"/>
    <rect id="Rectángulo_2" data-name="Rectángulo 2" width="2.202" height="16.313" transform="translate(365.201 73.993)" fill="#fff"/>
    <path id="Trazado_18" data-name="Trazado 18" d="M118.868,39.117c-4.877,0-7.455-3.8-7.455-8.485s2.578-8.528,7.455-8.528a6.677,6.677,0,0,1,6.163,3.464l-1.782,1.126a4.549,4.549,0,0,0-4.407-2.655c-3.7,0-5.157,3.081-5.157,6.592,0,3.534,1.432,6.546,5.157,6.546a4.644,4.644,0,0,0,4.431-2.5l1.759,1.1a6.81,6.81,0,0,1-6.163,3.331" transform="translate(259.728 51.529)" fill="#fff"/>
    <path id="Trazado_19" data-name="Trazado 19" d="M126.67,32.812h-6.326l-2.039,5.713H115.96l6.073-16.313h2.928l6.116,16.313h-2.342Zm-.676-1.869-2.462-6.886h-.073L121,30.943Z" transform="translate(270.328 51.781)" fill="#fff"/>
    <path id="Trazado_20" data-name="Trazado 20" d="M126.583,24.115c-1.8,0-3.278.919-3.278,2.5,0,1.686,1.732,2.205,3.771,2.812,2.205.653,5.157,1.552,5.157,4.884,0,2.812-2.182,4.77-5.6,4.77a7.144,7.144,0,0,1-5.766-2.542l1.123-1.689a5.242,5.242,0,0,0,4.547,2.342c2.252,0,3.494-1.263,3.494-2.768,0-1.552-1.243-2.322-3.538-2.971-2.112-.586-5.323-1.509-5.323-4.68,0-2.5,2.039-4.66,5.39-4.66a5.734,5.734,0,0,1,4.71,2.229l-1.452,1.486a3.783,3.783,0,0,0-3.235-1.709" transform="translate(281.767 51.543)" fill="#fff"/>
    <path id="Trazado_21" data-name="Trazado 21" d="M64.6,31.729c0,5.926-3.764,10.087-12.452,10.087H39.238V6.322H49.631c9.091,0,12.855,3.674,12.855,9.547,0,3.524-1.253,5.973-3.361,7.589a8.39,8.39,0,0,1,5.47,8.271M48.732,11.562H46.47v9.887h3.365c3.065-.047,5.523-1.319,5.523-5.09,0-3.524-2.458-4.8-6.626-4.8m8.684,20.217c0-4.064-3.065-5.287-7.232-5.287H46.47V36.576h4.82c3.415,0,6.126-1.126,6.126-4.8" transform="translate(91.472 14.738)" fill="#fff"/>
    <path id="Trazado_22" data-name="Trazado 22" d="M75.862,22.714c0,8.371-5.573,14.2-14.011,14.2-8.688,0-13.858-6.466-13.858-14.2C47.993,13.95,53.816,8.47,61.8,8.47c8.431,0,14.058,5.533,14.058,14.244m-20.89,0c0,5.337,2.861,8.028,6.879,8.028,4.117,0,7.032-3.088,7.032-8.028,0-5.63-2.915-8.175-7.079-8.175-3.971,0-6.832,2.592-6.832,8.175" transform="translate(111.882 19.745)" fill="#fff"/>
    <path id="Trazado_23" data-name="Trazado 23" d="M68.741,18V31.251c0,2.935.856,3.967,2.712,3.967a10.258,10.258,0,0,0,2.765-.443l.6,4.947A22.694,22.694,0,0,1,68.641,40.8c-5.673,0-6.729-3.967-6.679-8.668V18h-5.37V12.466h5.37V6.8h6.779v5.663H75.17V18Z" transform="translate(131.928 15.859)" fill="#fff"/>
    <path id="Trazado_24" data-name="Trazado 24" d="M90.508,21.785l-.047,2.6H70.424c.4,4.7,2.762,7,8.235,7,4.367,0,7.735-1.862,8.838-3.231l1.356,4.407c-2.458,2.6-6.276,4.357-11.249,4.357-8.385,0-14.108-5.633-14.108-14.344,0-9.3,6.276-14.1,13.811-14.1,7.482,0,13.355,4.7,13.2,13.315M70.574,19.826H83.932c-.453-3.864-2.209-5.776-6.626-5.776-3.668,0-5.976,1.762-6.732,5.776" transform="translate(148.02 19.745)" fill="#fff"/>
    <path id="Trazado_25" data-name="Trazado 25" d="M89.143,8.736v6.213a4.43,4.43,0,0,0-1.156-.147,8.513,8.513,0,0,0-7.832,6.319,10.284,10.284,0,0,0-.2,2.149V36.785H73.176V8.5h6.779v4.441a8.608,8.608,0,0,1,7.732-4.307,7.367,7.367,0,0,1,1.456.1" transform="translate(170.589 19.822)" fill="#fff"/>
    <path id="Trazado_26" data-name="Trazado 26" d="M106.655,22.714c0,8.371-5.573,14.2-14.014,14.2-8.684,0-13.858-6.466-13.858-14.2,0-8.764,5.826-14.244,13.811-14.244,8.435,0,14.061,5.533,14.061,14.244m-20.89,0c0,5.337,2.861,8.028,6.876,8.028,4.121,0,7.035-3.088,7.035-8.028,0-5.63-2.915-8.175-7.082-8.175-3.967,0-6.829,2.592-6.829,8.175" transform="translate(183.66 19.745)" fill="#fff"/>
    <path id="Trazado_27" data-name="Trazado 27" d="M105.07,12.179c-3.165,0-5.88,1.369-5.88,3.868,0,2.642,3.115,3.524,7.132,4.844,6.176,2.055,11.25,4.507,11.25,11.26,0,6.559-4.67,10.673-13.005,10.673a23.948,23.948,0,0,1-12.455-4.114l2.062-6.116c3.161,2.252,6.826,3.918,10.493,3.918,3.411,0,5.623-1.619,5.623-4.161s-2.259-3.821-5.976-4.993c-6.176-2.305-11.9-4.361-11.9-11.113,0-6.856,5.826-10.33,12.256-10.33a16.719,16.719,0,0,1,10.343,3.474l-2.309,5.68a12.675,12.675,0,0,0-7.632-2.888" transform="translate(214.733 13.784)" fill="#fff"/>
    <path id="Trazado_28" data-name="Trazado 28" d="M128.625,22.714c0,8.371-5.573,14.2-14.011,14.2-8.688,0-13.858-6.466-13.858-14.2,0-8.764,5.823-14.244,13.808-14.244C123,8.47,128.625,14,128.625,22.714m-20.89,0c0,5.337,2.862,8.028,6.879,8.028,4.121,0,7.032-3.088,7.032-8.028,0-5.63-2.912-8.175-7.082-8.175-3.967,0-6.829,2.592-6.829,8.175" transform="translate(234.884 19.745)" fill="#fff"/>
    <path id="Trazado_29" data-name="Trazado 29" d="M121.708,18V31.251c0,2.935.85,3.967,2.708,3.967a10.279,10.279,0,0,0,2.765-.443l.6,4.947A22.673,22.673,0,0,1,121.6,40.8c-5.673,0-6.729-3.967-6.679-8.668V18h-5.373V12.466h5.373V6.8h6.782v5.663h6.423V18Z" transform="translate(255.389 15.859)" fill="#fff"/>
    <path id="Trazado_30" data-name="Trazado 30" d="M143.773,22.714c0,8.371-5.573,14.2-14.014,14.2-8.684,0-13.858-6.466-13.858-14.2,0-8.764,5.826-14.244,13.811-14.244,8.435,0,14.061,5.533,14.061,14.244m-20.89,0c0,5.337,2.858,8.028,6.876,8.028,4.121,0,7.032-3.088,7.032-8.028,0-5.63-2.912-8.175-7.079-8.175-3.971,0-6.829,2.592-6.829,8.175" transform="translate(270.19 19.745)" fill="#fff"/>
  </g>
</svg>
